<svg width="24" height="24" viewBox="0 0 24 24" fill="none" xmlns="http://www.w3.org/2000/svg">
<path d="M11.9989 4.59499C10.8949 3.58899 9.48688 3.03699 8.00288 3.03699C6.42488 3.03699 4.93088 3.65999 3.78988 4.79499C1.43688 7.15799 1.43788 10.854 3.79188 13.207L11.1239 20.539C11.2939 20.838 11.6219 21.031 11.9989 21.031C12.3209 21.031 12.6079 20.868 12.7909 20.622L20.2059 13.207C22.5599 10.853 22.5599 7.15799 20.2039 4.79099C19.0669 3.65999 17.5729 3.03699 15.9949 3.03699C14.5119 3.03699 13.1029 3.58899 11.9989 4.59499ZM18.7899 6.20499C20.3529 7.77599 20.3539 10.23 18.7919 11.793L11.9989 18.586L5.20588 11.793C3.64388 10.23 3.64488 7.77599 5.20388 6.20899C5.96388 5.45299 6.95788 5.03699 8.00288 5.03699C9.04788 5.03699 10.0379 5.45299 10.7919 6.20699L11.2919 6.70699C11.6829 7.09799 12.3149 7.09799 12.7059 6.70699L13.2059 6.20699C14.7179 4.69799 17.2799 4.70199 18.7899 6.20499Z" fill="#249BB3"/>
</svg>
