<svg width="24" height="24" viewBox="0 0 24 24" fill="none" xmlns="http://www.w3.org/2000/svg">
<path d="M11.9989 2C6.5779 2 1.9989 6.579 1.9989 12C1.9989 15.189 3.5909 18.078 5.9989 19.924V20H6.1009C7.7689 21.245 9.8119 22 11.9989 22C14.1859 22 16.2289 21.245 17.8969 20H17.9989V19.924C20.4069 18.078 21.9989 15.19 21.9989 12C21.9989 6.579 17.4199 2 11.9989 2ZM8.0729 18.927C8.3699 17.582 9.5669 16.573 10.9989 16.573H12.9989C14.4309 16.573 15.6279 17.583 15.9249 18.927C14.7569 19.604 13.4149 20 11.9989 20C10.5829 20 9.2409 19.604 8.0729 18.927ZM17.6089 17.641C16.8519 15.841 15.0709 14.573 12.9989 14.573H10.9989C8.9269 14.573 7.1449 15.842 6.3889 17.641C4.9219 16.182 3.9989 14.176 3.9989 12C3.9989 7.663 7.6619 4 11.9989 4C16.3359 4 19.9989 7.663 19.9989 12C19.9989 14.176 19.0759 16.182 17.6089 17.641Z" fill="#249BB3"/>
<path d="M11.9989 6C9.7189 6 7.9989 7.72 7.9989 10C7.9989 12.28 9.7189 14 11.9989 14C14.2789 14 15.9989 12.28 15.9989 10C15.9989 7.72 14.2789 6 11.9989 6ZM11.9989 12C10.8209 12 9.9989 11.178 9.9989 10C9.9989 8.822 10.8209 8 11.9989 8C13.1769 8 13.9989 8.822 13.9989 10C13.9989 11.178 13.1769 12 11.9989 12Z" fill="#249BB3"/>
</svg>
