<svg width="78" height="72" viewBox="0 0 78 72" fill="none" xmlns="http://www.w3.org/2000/svg">
<path fill-rule="evenodd" clip-rule="evenodd" d="M16.417 0H16.4171V59.1009H44.3635C49.0825 59.1009 53.4126 58.4577 57.3537 57.1713C57.1824 57.4739 57.005 57.7732 56.8215 58.069C54.0635 62.5157 50.1797 65.9492 45.1702 68.3695C40.1606 70.7898 34.4194 72 27.9464 72H0V26.8299C0 10.2607 16.417 0 16.417 0Z" fill="#29CC7B"/>
<path d="M16.4169 0H44.3633C50.8362 0 56.5775 1.21017 61.587 3.6305C66.5965 6.05083 70.4803 9.48433 73.2384 13.931C75.9964 18.3776 77.3755 23.5842 77.3755 29.5506C77.3755 35.517 75.9964 40.7235 73.2384 45.1702C70.4803 49.6168 66.5965 53.0503 61.587 55.4706C56.5775 57.891 50.8362 59.1011 44.3633 59.1011H16.4169V0ZM43.6878 45.7612C48.7536 45.7612 52.8063 44.3259 55.8458 41.4552C58.9415 38.5846 60.4894 34.6164 60.4894 29.5506C60.4894 24.4848 58.9415 20.5165 55.8458 17.6459C52.8063 14.7753 48.7536 13.34 43.6878 13.34H33.134V45.7612H43.6878Z" fill="#249BB3"/>
</svg>
