<svg width="20" height="20" viewBox="0 0 20 20" fill="none" xmlns="http://www.w3.org/2000/svg">
<path d="M8.55249 17.105C10.526 17.105 12.3402 16.4261 13.7877 15.3004L18.4873 20L19.9989 18.4883L15.2993 13.7888C16.4261 12.3402 17.105 10.526 17.105 8.55249C17.105 3.83686 13.2681 0 8.55249 0C3.83686 0 0 3.83686 0 8.55249C0 13.2681 3.83686 17.105 8.55249 17.105ZM8.55249 2.13812C12.09 2.13812 14.9669 5.01497 14.9669 8.55249C14.9669 12.09 12.09 14.9669 8.55249 14.9669C5.01497 14.9669 2.13812 12.09 2.13812 8.55249C2.13812 5.01497 5.01497 2.13812 8.55249 2.13812Z" fill="white"/>
<path d="M10.062 7.04087C10.4671 7.44711 10.6906 7.98378 10.6906 8.55252H12.8287C12.8287 7.41397 12.384 6.34063 11.5736 5.52921C9.95505 3.91279 7.14876 3.91279 5.53127 5.52921L7.04079 7.043C7.85327 6.23265 9.25374 6.23479 10.062 7.04087Z" fill="white"/>
</svg>
